<?xml version="1.0" encoding="UTF-8"?>
<svg id="Layer_1" xmlns="http://www.w3.org/2000/svg" version="1.1" viewBox="0 0 450.4 318.9">
  <!-- Generator: Adobe Illustrator 30.0.0, SVG Export Plug-In . SVG Version: 2.1.1 Build 123)  -->
  <defs>
    <style>
      .st0 {
        fill: #8b68da;
      }

      .st1 {
        fill: #57419b;
      }
    </style>
  </defs>
  <g id="SVG">
    <path class="st1" d="M187.3,287.3c0-8.1,17.2-2.4,17.9-3.2.3-.3,0-7.1,0-8.4,0-2.1-20.7-4.5-26,3.5-4.2,6.3-2.4,16.3,5,19.2,3.5,1.4,17.3.9,12.3,8.5-1.9,2.9-14.7,1.1-17.9-.3v8.7c0,1.1,15.8,1.9,17.5,1.7,9.5-1.3,14.9-11.4,9.5-19.8-4.5-6.9-18.4-3.2-18.4-9.9h0Z"/>
    <path class="st1" d="M19.8,294.8c0,14.5,7.6,23,22.3,22.2,1.1,0,11.2-1.8,11.2-2.3v-9.8c-30.5,13.9-30.6-32.4,0-18.5v-10.4c-16.8-5.7-33.4-1.6-33.5,18.8h0Z"/>
    <path class="st1" d="M63.1,244.6c0,14.5,7.6,23,22.3,22.2,1.1,0,11.2-1.8,11.2-2.3v-9.8c-30.5,13.9-30.6-32.4,0-18.5v-10.4c-16.8-5.7-33.4-1.6-33.5,18.8h0Z"/>
    <path class="st1" d="M253.1,245.8v19.9h9.8v-24c0-2.8-3.7-7.2-6.5-8-10-2.8-14.4,5.5-15.2,5.4-.4,0-.6-4.6-.9-4.6h-8.7v31.2h9.8v-21.1c0-1.7,11.5-4.9,11.5,1.1h0Z"/>
    <path class="st1" d="M168.7,233.7c-9.9-2.8-14.4,5.5-15.2,5.4-.4,0-.6-4.6-.9-4.6h-8.7v31.2h9.8v-21.1c0-1.7,11.6-4.9,11.6,1.1v19.9h9.8v-24c0-2.8-3.7-7.2-6.4-8h0Z"/>
    <path class="st1" d="M292.1,261.6c1,0,.7,4,.9,4h8.7v-31.2h-9.8v21.1c0,2.1-11,4.9-11-1.1v-19.9h-9.8v22.8c0,3.4,3.2,8.1,6.6,9,9.6,2.6,13.7-4.7,14.5-4.7h0Z"/>
    <path class="st1" d="M389.4,234.5h-9.8c-1.1,0-4.8,19-7.5,20.8-1.2-2.4-5.4-20.2-6.4-20.8-.9-.5-8.6.4-10.4,0,3.7,9.4,6.3,19.4,10.2,28.7.6,1.5,2.3,1,2.5,1.6.6,1.7-3.3,7.7-2.9,10h9.5c2.1,0,12.4-36.4,14.7-40.4h0Z"/>
    <path class="st1" d="M413.7,293.8c1.2-4,12.2-1.2,14.9-.4v-8.1c-8.4-2.4-24.9-4.5-24.9,8.4,0,12.9,15.8,7.7,16.8,12.1,1.6,7.3-15,1.4-15.6,2-.2.2-.1,6.2.3,6.9,1.8,3.2,28.5,6.2,25-10.5-1.9-9-18.3-4.6-16.5-10.4h0Z"/>
    <path class="st1" d="M293.8,306.7c-1.1-.1-5.7-21.3-6.6-22-.7-.5-8.7.4-10.4,0,1.9,3.5,9.1,30.3,10.5,31.1.5.3,11.7.3,12.3.1,1.6-.5,9.9-27.6,11.2-31.2h-9.5c-1.4,0-6.4,22.1-7.5,22h0Z"/>
    <path class="st1" d="M180.5,237.8c-2.1,7.2,4.4,3,5.7,4.2.6.6,0,15.8,0,18.2,0,9,19.2,7.1,20.2,4.5.1-.3.2-6.8,0-7.1-.4-.4-10.4,4-10.4-.3v-15.3h10.4c.4,0,.4-7.5,0-7.5h-10.4c1.3-18-9.3-.5-15.5,3.3h0Z"/>
    <path class="st1" d="M351.3,264.7c.1-.3.2-6.8,0-7.1-.4-.4-10.4,4-10.4-.3v-15.3h10.4c.4,0,.4-7.5,0-7.5h-10.4c1.3-18-9.3-.5-15.5,3.3-2.1,7.2,4.5,3,5.7,4.2s0,15.8,0,18.2c0,9,19.2,7.1,20.2,4.5h0Z"/>
    <path class="st1" d="M342.6,298.3c1.7-11.1,17.2-3.5,17.9-4.3.3-.3.4-7.3-1-8.6-1.6-1.4-10.3-2-12.6-1.8-19.3,1.5-18.8,31.2-1.6,33.4,2.7.4,12.6-.2,14.4-2.2.9-1,1.3-7,.8-7.5-.9-1-20.6,8.5-17.9-9h0Z"/>
    <path class="st1" d="M115,284.9c-2.4,1-4.9,6.5-5.3,6.2-1.4-.9,2.9-9-9-6.4v31.2h9.8v-15.3c0-7.5,11.6-4.9,12.1-5.5.3-.4,0-8.6,0-10.1s-6.2-.7-7.7-.2h0Z"/>
    <path class="st1" d="M265.7,284.9c-2.4,1-4.9,6.5-5.3,6.2-1.4-.9,2.9-9-9-6.4v31.2h9.8v-15.3c0-7.5,11.6-4.9,12.1-5.5.3-.4,0-8.6,0-10.1s-6.2-.7-7.7-.2h0Z"/>
    <rect class="st1" x="310.3" y="234.5" width="9.8" height="31.2"/>
    <rect class="st1" x="213.3" y="234.5" width="9.8" height="31.2"/>
    <rect class="st1" x="315.5" y="284.7" width="9.8" height="31.2"/>
    <path class="st1" d="M315.5,274.3c-.3,0-.3,6.4,0,6.4h10.4c.3,0,.2-6.1,0-6.4-.4-.4-8.9,0-10.4,0Z"/>
    <path class="st1" d="M320.7,224.1c-.4-.4-8.9,0-10.4,0s-.3,6.4,0,6.4h10.4c.3,0,.2-6.1,0-6.4Z"/>
    <path class="st1" d="M223.7,224.1c-.4-.4-8.9,0-10.4,0s-.3,6.4,0,6.4h10.4c.3,0,.2-6.1,0-6.4Z"/>
    <path class="st1" d="M82.8,288.8c-23.8-22.9-33.8,32.5-7.5,28,4.7-.8,7.3-5.1,7.8-5,.6.2.7,3.9.9,4,.6.4,7.2-.3,8.7,0v-31.2h-9.8c-.2,0,.2,3.5,0,4h0ZM82.7,307.1c-1.7,3.3-15.3,4-13.1-8.8,1.2-7,11-7.4,12.9-3.8.4.8.5,11.9.2,12.6Z"/>
    <path class="st1" d="M112.5,265.7c29.6,10.3,35.2-36.5,3.6-32.2-17,2.3-17.3,27.4-3.6,32.2ZM117.9,242.1c12.4-2.5,11.8,14.9,4.4,16.5-11.8,2.4-12.3-14.9-4.4-16.5Z"/>
    <path class="st1" d="M365.7,297.2c-1.5,14.5,6,20.8,19.9,19.9,1.4,0,8.6-1.5,9.1-2.3.5-.7.6-7.3.4-7.6-.8-.9-19.7,7.7-19.6-4h21.4v-8.4c0-13.2-29.1-17.8-31.2,2.3h0ZM375,298c.9-9,13.5-9.3,13.9,0h-13.9Z"/>
    <path class="st1" d="M126.7,297.2c-1.5,14.5,6,20.8,19.9,19.9,1.4,0,8.6-1.5,9.1-2.3.5-.7.6-7.3.4-7.6-.8-.9-19.7,7.7-19.6-4h21.4v-8.4c0-13.2-29.1-17.8-31.2,2.3h0ZM135.9,298c.9-9,13.5-9.3,13.9,0h-13.9Z"/>
    <path class="st1" d="M212.7,297.2c-1.5,14.5,6,20.8,19.9,19.9,1.4,0,8.6-1.5,9.1-2.3.5-.7.6-7.3.4-7.6-.8-.9-19.7,7.7-19.6-4h21.4v-8.4c0-13.2-29.1-17.8-31.2,2.3h0ZM221.9,298c.9-9,13.5-9.3,13.9,0h-13.9Z"/>
  </g>
  <g>
    <path class="st0" d="M428.7,38.2c31.5,43.1,25.1,114.3-16.4,150.7-28.6,24.2-68.3,24-101.9,10.7,0,0,0,0,0,0-.6-.7-21-24.9-15.8-50.4,2.7,2.2,5.3,4.2,7.9,6.1,28.6,20.8,64.4,28.1,88.6,1.1,15.4-16.6,21.7-36.6,20.8-55.3h0s32-12.1,16.6-62.8Z"/>
    <path class="st1" d="M428.7,38.2c15.3,50.6-16.6,62.8-16.6,62.8h0c-2.1-48.2-51-88.4-111.3-42.8l-.9.8h0c-12.2,3.4-45-9.5-45-9.5h0c29.3-27.2,76.4-60,128.7-42.9h.2c19.4,5.8,34.3,17.1,45,31.6h0Z"/>
    <path class="st1" d="M201.9,106.5l-52.6-45.6c-13.4-11.1-26.6-17.3-38.8-19.8h0c0-.1,24.7-20.7,49.5-15.6,24,16,45.7,37.4,64.3,54.8l26.6,25.2c.7,1.9,11.9,15.8,22.1,24.9,7,6.3,14.5,12.9,21.7,18.7-5.2,25.5,15.2,49.7,15.8,50.4-1.7-.6-3.3-1.3-4.9-2-24.9-10.4-46.6-29.6-64.8-49.1-3.7-3.8-7.4-9-10.9-13.2,0,0,0,0,0,0-.5-.6-1.1-1.2-1.6-1.8-1-1.1-1.5-1.7-2-1.9l-24.3-25.1h0Z"/>
    <path class="st0" d="M299.8,59l-28.4,26.7c-10.7,9.7-13.4,13.2-20.6,19.9l-26.6-25.2c2.5-1.1,13.5-15,30.6-30.9h0s32.8,12.9,45,9.6Z"/>
    <path class="st0" d="M226.2,131.5c-.6-.1-1.1.5-2.2,1.9l-10.3,12.9c-1.8,2.3-3.8,4.4-5.8,6.5-4.2,4.2-11.8,11.7-17.7,16.8-16.1,14.2-31.8,24.1-46.9,30.5,0,0,16.8-25.6,2.6-40.4,8.7-5.4,17-12,24.6-19.1h.1c5.9-5.8,28.5-31.1,31.4-34.2l24.3,25.1h0Z"/>
    <path class="st0" d="M160,25.6c-24.7-5.1-49.5,15.4-49.5,15.4h0c-54.7-10.9-92.1,53.4-63.4,100.8,0,0-30.5,4.8-36.7,3.1C-8.2,99.8,1.6,42,57.5,9.8,74.4,1.3,91.6.2,108.8,3.2c17.9,3.2,35.1,11.6,51.2,22.3Z"/>
    <path class="st1" d="M145.8,159.8c14.1,14.8-2.6,40.4-2.6,40.4-2.8,1.2-5.5,2.2-8.2,3.1-58.2,20-105.9-12.7-124.6-58.5,6.2,1.7,36.7-3.1,36.7-3.1,2.5,4.2,5.6,8.2,9.2,12.1,27.3,29.3,60.8,23.9,89.6,5.9Z"/>
  </g>
</svg>