<?xml version="1.0" encoding="UTF-8"?>
<svg id="Layer_2" data-name="Layer 2" xmlns="http://www.w3.org/2000/svg" xmlns:xlink="http://www.w3.org/1999/xlink" viewBox="0 0 404 68.63">
  <defs>
    <style>
      .cls-1 {
        fill: #8b68da;
      }

      .cls-2 {
        fill: #57419b;
      }
    </style>
    <symbol id="CCS_Long" data-name="CCS Long" viewBox="0 0 404 68.63">
      <g>
        <g>
          <path class="cls-1" d="M141.06,12.05c10.42,14.23,8.28,37.76-5.42,49.79-9.45,8-22.55,7.91-33.68,3.54h0c-.19-.22-6.94-8.22-5.2-16.65.89.72,1.76,1.4,2.61,2.01,9.45,6.87,21.26,9.29,29.29.35,5.09-5.48,7.16-12.08,6.89-18.28h.02s10.56-4.01,5.49-20.75Z"/>
          <path class="cls-2" d="M141.06,12.05c5.07,16.74-5.49,20.75-5.49,20.75h-.02c-.7-15.93-16.86-29.21-36.78-14.15l-.29.27h0c-4.02,1.12-14.87-3.15-14.87-3.15h0c9.67-9,25.23-19.83,42.54-14.16l.07.02c6.4,1.89,11.34,5.62,14.86,10.42Z"/>
          <path class="cls-2" d="M66.1,34.62l-17.39-15.05c-4.44-3.66-8.77-5.73-12.82-6.54v-.04s8.18-6.8,16.36-5.1c7.93,5.3,15.1,12.34,21.24,18.1l8.78,8.33c.24.62,3.94,5.21,7.31,8.22,2.32,2.07,4.8,4.28,7.17,6.19-1.73,8.43,5.02,16.42,5.2,16.65-.55-.21-1.09-.44-1.63-.67-8.24-3.43-15.4-9.78-21.4-16.23-1.21-1.25-2.45-2.97-3.59-4.35-.18-.22-.36-.43-.54-.62-.33-.37-.51-.58-.66-.61l-8.04-8.28Z"/>
          <path class="cls-1" d="M98.47,18.92l-9.4,8.82c-3.54,3.21-4.44,4.37-6.8,6.57l-8.78-8.33c.82-.35,4.46-4.97,10.1-10.21h0s10.84,4.28,14.87,3.16Z"/>
          <path class="cls-1" d="M74.14,42.89c-.19-.04-.36.16-.73.63l-3.4,4.27c-.6.76-1.24,1.47-1.92,2.16-1.39,1.39-3.89,3.85-5.85,5.56-5.31,4.69-10.51,7.98-15.51,10.09h0s5.53-8.48.86-13.36c2.88-1.79,5.61-3.97,8.11-6.32l.03-.03c1.96-1.88,9.42-10.24,10.38-11.28l8.04,8.28Z"/>
          <path class="cls-1" d="M52.25,7.89c-8.17-1.7-16.35,5.1-16.35,5.1v.04C17.84,9.39,5.47,30.63,14.95,46.3c0,0-10.08,1.58-12.13,1.03C-3.29,32.42-.06,13.31,18.39,2.66,23.97-.14,29.67-.49,35.34.51c5.92,1.05,11.59,3.82,16.92,7.37Z"/>
          <path class="cls-2" d="M47.58,52.25c4.67,4.88-.86,13.36-.86,13.36h0c-.92.39-1.82.74-2.72,1.04-19.23,6.6-34.99-4.21-41.18-19.32,2.04.55,12.13-1.03,12.13-1.03.83,1.38,1.84,2.73,3.03,4,9.02,9.67,20.08,7.88,29.6,1.94Z"/>
        </g>
        <g>
          <g>
            <g>
              <path class="cls-2" d="M158.87,16.89c0-8.55,4.51-13.51,12.21-13.51,2.66,0,5.81.7,8.36,1.85v5.51c-2.18-1.26-5.11-1.96-7.85-1.96-4.85,0-7.29,2.81-7.29,8.25,0,5.77,2.37,8.81,7.25,8.81,2.74,0,5.48-.74,7.88-1.96v5.22c-2.63,1.18-5.66,1.85-8.36,1.85-7.74,0-12.21-5.11-12.21-14.06Z"/>
              <path class="cls-2" d="M183.78,20.14c0-5.88,3.18-10.44,10.33-10.44s10.36,4.55,10.36,10.44-3.26,10.81-10.36,10.81-10.33-4.77-10.33-10.81ZM199.51,20.26c0-3.74-1.89-5.85-5.4-5.85s-5.37,2.11-5.37,5.85c0,3.96,1.89,6.18,5.37,6.18s5.4-2.22,5.4-6.18Z"/>
              <path class="cls-2" d="M209.83,10.34h4.26l.44,3.07h.07c1.67-2.29,4.15-3.67,7.36-3.67,4,0,6.51,2.55,6.51,7.77v12.88h-4.96v-11.33c0-3.11-1.22-4.55-3.7-4.55-1.85,0-3.85.78-5.03,2v13.88h-4.96V10.34Z"/>
              <path class="cls-2" d="M235.85,24.18v-9.62h-3.63v-2.89c2.59-.96,4.85-3.29,6.26-6.29h2.33v4.96h6.77v4.22h-6.77v8.66c0,2.66.59,3.37,2.52,3.37,1.48,0,2.92-.48,4.18-1.3v4.4c-1.33.74-3.59,1.26-5.7,1.26-4,0-5.96-2.11-5.96-6.77Z"/>
              <path class="cls-2" d="M252.7,3.45h5.37v3.85h-5.37v-3.85ZM252.92,10.34h4.96v20.06h-4.96V10.34Z"/>
              <path class="cls-2" d="M264.28,10.34h4.26l.44,3.07h.07c1.67-2.29,4.15-3.67,7.36-3.67,4,0,6.51,2.55,6.51,7.77v12.88h-4.96v-11.33c0-3.11-1.22-4.55-3.7-4.55-1.85,0-3.85.78-5.03,2v13.88h-4.96V10.34Z"/>
              <path class="cls-2" d="M289.38,23.14v-12.81h4.96v11.55c0,3.18,1.18,4.48,3.26,4.48s4.03-.92,5.18-1.96v-14.06h4.96v20.06h-4.26l-.44-3.07h-.07c-1.67,2.26-4.03,3.63-6.88,3.63-4.15,0-6.7-2.52-6.7-7.81Z"/>
              <path class="cls-2" d="M313.95,3.45h5.37v3.85h-5.37v-3.85ZM314.17,10.34h4.96v20.06h-4.96V10.34Z"/>
              <path class="cls-2" d="M326.46,24.18v-9.62h-3.63v-2.89c2.59-.96,4.85-3.29,6.26-6.29h2.33v4.96h6.77v4.22h-6.77v8.66c0,2.66.59,3.37,2.52,3.37,1.48,0,2.92-.48,4.18-1.3v4.4c-1.33.74-3.59,1.26-5.7,1.26-4,0-5.96-2.11-5.96-6.77Z"/>
              <path class="cls-2" d="M349.48,29.8h-.63l-7.36-19.47h5.26l5.03,14.36h.07l5.18-14.36h5.11l-9.88,26.24h-5.22l2.44-6.77Z"/>
            </g>
            <g>
              <path class="cls-2" d="M158.54,51.15c0-8.55,4.51-13.51,12.21-13.51,2.66,0,5.81.7,8.36,1.85v5.51c-2.18-1.26-5.11-1.96-7.85-1.96-4.85,0-7.29,2.81-7.29,8.25,0,5.77,2.37,8.81,7.25,8.81,2.74,0,5.48-.74,7.88-1.96v5.22c-2.63,1.18-5.66,1.85-8.36,1.85-7.74,0-12.21-5.11-12.21-14.06Z"/>
              <path class="cls-2" d="M182.74,54.66c0-7.11,3.7-10.66,8.22-10.66,3.11,0,5.03,1.26,6.48,3.37h.11v-2.78h4.85v20.06h-4.26l-.41-2.7h-.07c-1.55,2.11-4.07,3.26-6.96,3.26-5.11,0-7.96-3.7-7.96-10.55ZM197.43,59.22v-8.51c-1.15-1.11-3.11-1.89-4.96-1.89-3.18,0-4.81,2.29-4.81,6.03,0,4.03,1.59,5.85,4.66,5.85,1.85,0,3.63-.56,5.11-1.48Z"/>
              <path class="cls-2" d="M207.99,44.6h4.22l.41,4.63h.11c.81-2.78,2.7-5.07,5.62-5.07,1.18,0,2,.15,2.81.44v5.26c-.81-.22-1.7-.37-2.85-.37-2.85,0-4.26,1.44-5.37,4.92v10.25h-4.96v-20.06Z"/>
              <path class="cls-2" d="M223.16,54.7c0-6.74,3.48-10.73,9.55-10.73s9.03,3.74,9.03,9.73c0,1.07,0,1.59-.07,2.78h-13.62c.41,2.81,2.11,4.44,5.85,4.44,2.55,0,4.74-.63,6.77-1.78v4.51c-2.22,1-4.7,1.56-7.33,1.56-7.18,0-10.18-4-10.18-10.51ZM237.22,53.04c0-2.78-1.55-4.66-4.48-4.66-2.7,0-4.33,1.59-4.7,4.66h9.18Z"/>
              <path class="cls-2" d="M254.66,63.92v-4.88c2,.93,4.55,1.52,7.33,1.52,3,0,4.33-1.04,4.33-3.33,0-1.81-.96-2.78-3.48-3.15l-2.37-.37c-4.66-.7-6.88-3.48-6.88-8.07s3.4-7.99,9.36-7.99c2.96,0,5.07.52,7.22,1.15v5c-1.96-.7-4.66-1.22-6.81-1.22-3.29,0-4.55,1.44-4.55,3.26,0,2.15,1,2.96,3.52,3.4l2.52.44c4.85.85,6.7,3.33,6.7,7.44,0,5.26-3.37,8.14-9.14,8.14-3.11,0-5.4-.55-7.73-1.33Z"/>
              <path class="cls-2" d="M274.94,54.7c0-6.74,3.48-10.73,9.55-10.73s9.03,3.74,9.03,9.73c0,1.07,0,1.59-.07,2.78h-13.62c.41,2.81,2.11,4.44,5.85,4.44,2.55,0,4.74-.63,6.77-1.78v4.51c-2.22,1-4.7,1.56-7.33,1.56-7.18,0-10.18-4-10.18-10.51ZM289,53.04c0-2.78-1.55-4.66-4.48-4.66-2.7,0-4.33,1.59-4.7,4.66h9.18Z"/>
              <path class="cls-2" d="M298.15,44.6h4.22l.41,4.63h.11c.81-2.78,2.7-5.07,5.62-5.07,1.18,0,2,.15,2.81.44v5.26c-.81-.22-1.7-.37-2.85-.37-2.85,0-4.26,1.44-5.37,4.92v10.25h-4.96v-20.06Z"/>
              <path class="cls-2" d="M313.36,44.6h5.15l5.11,15.36h.08l5.11-15.36h5.11l-6.96,20.06h-6.62l-6.96-20.06Z"/>
              <path class="cls-2" d="M336.3,37.71h5.37v3.85h-5.37v-3.85ZM336.53,44.6h4.96v20.06h-4.96v-20.06Z"/>
              <path class="cls-2" d="M345.97,54.7c0-6.59,3.26-10.7,9.92-10.7,2.07,0,4.63.52,6.62,1.48v4.81c-1.89-1.07-4-1.67-6.03-1.67-3.89,0-5.63,2.4-5.63,6.11s1.74,6.11,5.7,6.11c1.89,0,4.03-.63,5.96-1.74v4.52c-2.07,1.04-4.48,1.59-6.59,1.59-6.88,0-9.96-4.03-9.96-10.51Z"/>
              <path class="cls-2" d="M365.84,54.7c0-6.74,3.48-10.73,9.55-10.73s9.03,3.74,9.03,9.73c0,1.07,0,1.59-.07,2.78h-13.62c.41,2.81,2.11,4.44,5.85,4.44,2.55,0,4.74-.63,6.77-1.78v4.51c-2.22,1-4.7,1.56-7.33,1.56-7.18,0-10.18-4-10.18-10.51ZM379.9,53.04c0-2.78-1.55-4.66-4.48-4.66-2.7,0-4.33,1.59-4.7,4.66h9.18Z"/>
              <path class="cls-2" d="M389.08,63.84v-4.37c1.67.78,3.92,1.52,6.22,1.52,2.52,0,3.85-.78,3.85-2.29,0-1.18-.55-1.74-2.52-2.04l-2.7-.41c-3.92-.59-5.63-2.52-5.63-5.96,0-4,2.74-6.29,7.85-6.29,2.18,0,4.55.44,6.55,1.11v4.55c-1.55-.63-3.92-1.18-5.92-1.18-2.55,0-3.63.59-3.63,2.04,0,1.22.81,1.78,2.81,2.11l2.52.44c3.96.7,5.51,2.37,5.51,5.7,0,4-2.81,6.44-8.03,6.44-2.48,0-4.66-.44-6.88-1.37Z"/>
            </g>
          </g>
          <g>
            <path class="cls-1" d="M368.58,21.44c-.6,2.4.62,4.07,1.28,4.72.72.71,2.88,2.39,5.8.78.49-.27.87-.69,1.25-1.05.42-.46.28-.72-.21-.98-1.12-.68-1.88-1.72-2.25-2.88-2.19-6.81,5.63-5.1,4.8.77-.07.48-.49,1.04-.05,1.54.44.38,1.55.27,2.17,0,.73-.2.98-.63,1.71-.88.84.22-.21,1.41-.61,1.67l-.28.18c-.91.57-2.03.66-3.12.5-.82-.12-1.04.6-1.6,1.02-.63.47-1.39,1.98-4.34,2.28-2.95.3-4.77-2.03-5.37-3.04-1.45-2.45-.65-7.04,2.47-8.78,1.05-.58,2.41-.5,3.45.1.55.31.32.36-.04.3-2.94-.53-4.53,1.54-5.08,3.75ZM377.84,19.51c-.12-.16-.96-1.1-1.67-1.1-1.78,0-1.16,2.32-.58,3.69.19.45,1.22,2.34,2.2,2.32.64-.01.83-1.9.81-2.32-.09-1.54-.27-1.94-.75-2.6Z"/>
            <path class="cls-1" d="M385.65,22.71c2.18-.82,3.88-1.77,4.38-3.72.65-.59.22.74.21,1-.46,1.43-1.07,2.78-3.69,3.58-1.77.55-1.59,1.49-1.24,2.1.56.95.76,1.88,1.22,2.88.74,1.59,1.37,3.18,1.76,4.44,4.14,13.41-9.2,10.55-6.89-4.79.12-.77.48-2.61.43-3.39-.01-.17-.29,0-.27-1.79.01-1.18-.15-1.86-.26-3.32-.56-7.18-.18-11.48,3.16-15.37,1.1-1.28,3.14-1.12,3.69.31.82,2.12-.53,6.79-1.47,8.7s-1.28,2.56-2.74,5.68c-.28.59-.89,1.92-.89,3.18,0,.83-.14,1.48.48,1.26M384.53,37.93c.48.64,3.15,3.73,3.15-1.06s-3.05-10.34-3.56-11.44c-.95-2.04-1.4,2.18-1.43,2.8-.03.5-.36,2.56.05,5.55.27,1.98.68,2.68,1.79,4.15ZM386.73,5.19c-.16-.17-.39-.25-.63-.19-.99.25-1.96,2.16-2.69,4.55-.94,3.09-1.84,14.65.8,5.6.66-2.26,4.32-7.98,2.52-9.96Z"/>
          </g>
        </g>
      </g>
    </symbol>
  </defs>
  <g id="Layer_1" data-name="Layer 1">
    <use width="404" height="68.63" xlink:href="#CCS_Long"/>
  </g>
</svg>