<?xml version="1.0" encoding="UTF-8"?>
<svg id="Layer_1" data-name="Layer 1" xmlns="http://www.w3.org/2000/svg" viewBox="0 0 500 500">
  <defs>
    <style>
      .cls-1 {
        fill: #8b68da;
      }

      .cls-2 {
        fill: #57419b;
      }
    </style>
  </defs>
  <g id="SVG">
    <path class="cls-2" d="M212.44,380.77c0-8.14,17.21-2.42,17.92-3.18.29-.3,0-7.11,0-8.37,0-2.07-20.71-4.45-25.98,3.46-4.19,6.28-2.39,16.32,5.03,19.23,3.49,1.37,17.29.91,12.34,8.53-1.89,2.91-14.66,1.1-17.94-.33v8.66c0,1.11,15.77,1.91,17.54,1.66,9.5-1.34,14.95-11.37,9.5-19.76-4.51-6.94-18.42-3.17-18.41-9.91h0Z"/>
    <path class="cls-2" d="M44.99,388.28c-.1,14.54,7.63,22.97,22.3,22.25,1.05-.05,11.23-1.76,11.23-2.33v-9.82c-30.51,13.91-30.62-32.43,0-18.48v-10.39c-16.77-5.7-33.39-1.61-33.53,18.76h0Z"/>
    <path class="cls-2" d="M88.29,338.05c-.1,14.54,7.63,22.97,22.3,22.25,1.05-.05,11.23-1.76,11.23-2.33v-9.82c-30.51,13.91-30.62-32.43,0-18.48v-10.39c-16.77-5.7-33.39-1.61-33.53,18.76h0Z"/>
    <path class="cls-2" d="M278.29,339.2v19.92h9.82v-23.96c0-2.8-3.66-7.22-6.45-7.98-9.95-2.75-14.36,5.45-15.2,5.38-.44-.03-.63-4.62-.86-4.62h-8.66v31.18h9.82v-21.07c0-1.73,11.55-4.85,11.55,1.15h-.02Z"/>
    <path class="cls-2" d="M193.9,327.18c-9.95-2.75-14.36,5.45-15.2,5.38-.44-.03-.63-4.62-.86-4.62h-8.66v31.18h9.82v-21.07c0-1.73,11.55-4.85,11.55,1.15v19.92h9.82v-23.96c0-2.8-3.66-7.22-6.45-7.98h-.02Z"/>
    <path class="cls-2" d="M317.27,355.08c.97.05.66,4.04.86,4.04h8.66v-31.18h-9.82v21.07c0,2.15-10.97,4.92-10.97-1.15v-19.92h-9.82v22.81c0,3.42,3.18,8.06,6.6,8.99,9.58,2.62,13.68-4.7,14.48-4.66h.01Z"/>
    <path class="cls-2" d="M414.55,327.94h-9.82c-1.1,0-4.83,19.05-7.5,20.78-1.2-2.44-5.43-20.22-6.36-20.78-.85-.52-8.63.39-10.39,0,3.72,9.4,6.33,19.42,10.25,28.72.65,1.55,2.29,1.02,2.51,1.64.61,1.74-3.28,7.69-2.94,10.05h9.53c2.15,0,12.4-36.43,14.72-40.42h0Z"/>
    <path class="cls-2" d="M438.88,387.25c1.2-4.01,12.21-1.21,14.93-.41v-8.08c-8.37-2.42-24.88-4.53-24.86,8.37.02,12.89,15.82,7.74,16.82,12.14,1.65,7.34-15.02,1.35-15.62,2-.24.25-.11,6.24.28,6.94,1.8,3.16,28.48,6.16,24.98-10.55-1.87-8.95-18.26-4.6-16.53-10.4h0Z"/>
    <path class="cls-2" d="M319,400.12c-1.14-.15-5.69-21.3-6.64-21.95-.69-.46-8.73.35-10.39,0,1.85,3.54,9.06,30.27,10.48,31.09.53.31,11.67.33,12.34.13,1.64-.48,9.88-27.62,11.24-31.22h-9.53c-1.39,0-6.36,22.1-7.51,21.95h.01Z"/>
    <path class="cls-2" d="M205.66,331.23c-2.12,7.16,4.45,3.01,5.66,4.22.64.64,0,15.75,0,18.19,0,9.01,19.24,7.06,20.23,4.51.13-.33.2-6.84-.03-7.11-.36-.43-10.39,3.99-10.39-.29v-15.3h10.39c.38,0,.38-7.51,0-7.51h-10.39c1.26-17.99-9.26-.55-15.47,3.29h0Z"/>
    <path class="cls-2" d="M376.47,358.15c.13-.33.2-6.84-.03-7.11-.36-.43-10.39,3.99-10.39-.29v-15.3h10.39c.38,0,.38-7.51,0-7.51h-10.39c1.26-17.99-9.26-.55-15.47,3.29-2.12,7.16,4.45,3.01,5.66,4.22.64.64,0,15.75,0,18.19,0,9.01,19.24,7.06,20.23,4.51h0Z"/>
    <path class="cls-2" d="M367.77,391.73c1.73-11.08,17.2-3.53,17.9-4.32.29-.32.39-7.34-.96-8.56-1.57-1.43-10.28-2.03-12.63-1.84-19.31,1.5-18.75,31.22-1.64,33.44,2.71.35,12.61-.22,14.4-2.2.91-1.01,1.27-7.04.82-7.54-.85-.96-20.64,8.54-17.9-8.96v-.02Z"/>
    <path class="cls-2" d="M140.14,378.31c-2.35.97-4.94,6.47-5.32,6.22-1.37-.89,2.86-9.04-8.96-6.35v31.18h9.82v-15.3c0-7.48,11.65-4.93,12.12-5.48.33-.38,0-8.63,0-10.1,0-1.63-6.24-.74-7.66-.16h0Z"/>
    <path class="cls-2" d="M290.84,378.31c-2.35.97-4.94,6.47-5.32,6.22-1.37-.89,2.86-9.04-8.96-6.35v31.18h9.82v-15.3c0-7.48,11.65-4.93,12.12-5.48.33-.38,0-8.63,0-10.1,0-1.63-6.24-.74-7.66-.16h0Z"/>
    <rect class="cls-2" x="335.45" y="327.94" width="9.82" height="31.18"/>
    <rect class="cls-2" x="238.45" y="327.94" width="9.82" height="31.18"/>
    <rect class="cls-2" x="340.65" y="378.18" width="9.82" height="31.18"/>
    <path class="cls-2" d="M340.65,367.78c-.32,0-.32,6.35,0,6.35h10.39c.32,0,.22-6.13,0-6.35-.37-.37-8.89,0-10.39,0Z"/>
    <path class="cls-2" d="M345.84,317.55c-.37-.37-8.89,0-10.39,0-.32,0-.32,6.35,0,6.35h10.39c.32,0,.22-6.13,0-6.35Z"/>
    <path class="cls-2" d="M248.85,317.55c-.37-.37-8.89,0-10.39,0-.32,0-.32,6.35,0,6.35h10.39c.32,0,.22-6.13,0-6.35Z"/>
    <path class="cls-2" d="M107.96,382.22c-23.76-22.86-33.85,32.5-7.46,28.04,4.7-.8,7.32-5.12,7.76-4.95.56.22.68,3.92.87,4.05.57.4,7.23-.3,8.66,0v-31.18h-9.82c-.2,0,.15,3.51,0,4.04h-.01ZM107.86,400.59c-1.73,3.31-15.33,4.02-13.11-8.79,1.21-7.02,11.04-7.42,12.93-3.81.43.83.53,11.94.18,12.6Z"/>
    <path class="cls-2" d="M137.67,359.15c29.62,10.29,35.15-36.55,3.64-32.21-17,2.34-17.35,27.44-3.64,32.21ZM143.03,335.59c12.41-2.47,11.77,14.93,4.35,16.46-11.78,2.43-12.3-14.88-4.35-16.46Z"/>
    <path class="cls-2" d="M390.89,390.6c-1.52,14.55,6.04,20.77,19.92,19.92,1.43-.09,8.56-1.48,9.15-2.26.52-.69.61-7.28.36-7.57-.76-.88-19.73,7.73-19.63-4.04h21.36v-8.37c0-13.22-29.07-17.76-31.17,2.32h.01ZM400.12,391.45c.91-9.03,13.48-9.33,13.86,0h-13.86Z"/>
    <path class="cls-2" d="M151.86,390.6c-1.52,14.55,6.04,20.77,19.92,19.92,1.43-.09,8.56-1.48,9.15-2.26.52-.69.61-7.28.36-7.57-.76-.88-19.73,7.73-19.63-4.04h21.36v-8.37c0-13.22-29.07-17.76-31.17,2.32h.01ZM161.09,391.45c.91-9.03,13.48-9.33,13.86,0h-13.86Z"/>
    <path class="cls-2" d="M237.89,390.6c-1.52,14.55,6.04,20.77,19.92,19.92,1.43-.09,8.56-1.48,9.15-2.26.52-.69.61-7.28.36-7.57-.76-.88-19.73,7.73-19.63-4.04h21.36v-8.37c0-13.22-29.07-17.76-31.17,2.32h.01ZM247.11,391.45c.91-9.03,13.48-9.33,13.86,0h-13.86Z"/>
  </g>
  <g>
    <path class="cls-1" d="M453.54,131.63c31.55,43.06,25.06,114.26-16.41,150.68-28.6,24.22-68.26,23.95-101.92,10.7,0,0-.01.01-.01,0-.57-.68-21-24.87-15.75-50.38,2.69,2.17,5.34,4.23,7.9,6.09,28.61,20.78,64.35,28.13,88.65,1.05,15.41-16.6,21.67-36.57,20.84-55.34h.07s31.97-12.15,16.63-62.8Z"/>
    <path class="cls-2" d="M453.54,131.63c15.34,50.65-16.63,62.8-16.63,62.8h-.07c-2.13-48.21-51.03-88.41-111.33-42.83l-.87.82h0c-12.17,3.39-44.99-9.53-44.99-9.53v-.02c29.26-27.21,76.35-60,128.74-42.84l.2.06c19.39,5.71,34.34,17.03,44.96,31.54h-.01Z"/>
    <path class="cls-2" d="M226.68,199.91l-52.62-45.55c-13.43-11.08-26.55-17.34-38.8-19.8l.02-.11s24.74-20.57,49.48-15.44c23.99,16.03,45.69,37.36,64.29,54.77l26.56,25.22c.73,1.88,11.91,15.77,22.13,24.89,7.03,6.27,14.53,12.94,21.71,18.74-5.25,25.51,15.18,49.7,15.75,50.38-1.66-.65-3.3-1.33-4.92-2.04-24.94-10.38-46.62-29.61-64.76-49.11-3.67-3.79-7.42-9-10.88-13.16-.02-.02-.03-.04-.05-.05-.53-.64-1.05-1.25-1.57-1.83-.99-1.1-1.52-1.73-2-1.85l-24.34-25.06h0Z"/>
    <path class="cls-1" d="M324.63,152.42l-28.44,26.7c-10.71,9.73-13.43,13.24-20.58,19.88l-26.56-25.22c2.48-1.07,13.5-15.04,30.58-30.91v.02s32.83,12.92,45,9.53Z"/>
    <path class="cls-1" d="M251.02,224.97c-.57-.14-1.08.46-2.23,1.91l-10.3,12.93c-1.82,2.28-3.76,4.45-5.82,6.52-4.21,4.22-11.76,11.65-17.72,16.84-16.07,14.19-31.82,24.15-46.94,30.54,0,0,16.75-25.65,2.61-40.43,8.71-5.43,16.99-12.01,24.55-19.13l.1-.09c5.92-5.7,28.5-30.98,31.41-34.15l24.34,25.06h0Z"/>
    <path class="cls-1" d="M184.76,119.01c-24.74-5.13-49.48,15.44-49.48,15.44l-.02.11c-54.65-11.01-92.08,53.3-63.41,100.72,0,0-30.52,4.78-36.7,3.12-18.5-45.15-8.73-102.98,47.12-135.2,16.9-8.46,34.15-9.54,51.29-6.51,17.93,3.17,35.08,11.55,51.2,22.32Z"/>
    <path class="cls-2" d="M170.62,253.28c14.14,14.78-2.61,40.43-2.61,40.43-2.77,1.17-5.51,2.22-8.23,3.15-58.2,19.98-105.9-12.74-124.63-58.46,6.18,1.66,36.7-3.12,36.7-3.12,2.52,4.19,5.58,8.25,9.18,12.12,27.29,29.28,60.77,23.86,89.59,5.88Z"/>
  </g>
</svg>